<svg width="20" height="17" viewBox="0 0 20 17" fill="none" xmlns="http://www.w3.org/2000/svg">
<path d="M19.6805 7.70602L12.4594 0.326355C12.2537 0.117333 11.9754 0 11.6853 0C11.3952 0 11.1169 0.117333 10.9112 0.326355L10.2514 0.996111C10.1496 1.09975 10.0689 1.22299 10.0141 1.3587C9.95922 1.49441 9.93125 1.63989 9.93179 1.78671C9.9305 2.08617 10.0454 2.37394 10.2514 2.58698L14.4676 6.90414H1.08043C0.938649 6.9025 0.797962 6.92971 0.666577 6.98419C0.535193 7.03867 0.415739 7.11933 0.315182 7.22147C0.214625 7.3236 0.134977 7.44517 0.0808814 7.57908C0.0267861 7.71298 -0.000673865 7.85656 0.000102831 8.00142V8.94885C-0.00386803 9.24696 0.107302 9.53465 0.309521 9.7496C0.51174 9.96454 0.788719 10.0894 1.08043 10.0972H14.5149L10.2514 14.4353C10.1501 14.5382 10.0698 14.6605 10.0149 14.7953C9.96008 14.93 9.93184 15.0745 9.93184 15.2205C9.93184 15.3664 9.96008 15.5109 10.0149 15.6457C10.0698 15.7805 10.1501 15.9028 10.2514 16.0057L10.907 16.6739C11.1127 16.8828 11.391 17 11.6811 17C11.9712 17 12.2494 16.8828 12.4552 16.6739L19.6805 9.29313C19.8852 9.08194 20 8.79676 20 8.49957C20 8.20239 19.8852 7.91721 19.6805 7.70602Z" fill="white"/>
</svg>
