<svg width="28" height="28" viewBox="0 0 28 28" fill="none" xmlns="http://www.w3.org/2000/svg">
<path d="M25.6667 13.9999C25.6686 15.5366 25.3661 17.0584 24.7764 18.4775C24.1868 19.8966 23.3218 21.1847 22.2314 22.2675C21.1499 23.3471 19.8663 24.2029 18.4539 24.7862C17.0415 25.3694 15.5281 25.6686 14 25.6666C7.55649 25.6666 2.33332 20.4434 2.33332 13.9999C2.32924 11.0085 3.47833 8.13052 5.54166 5.96451C6.63036 4.81569 7.94203 3.90111 9.3964 3.27673C10.8508 2.65236 12.4173 2.33132 14 2.33326C15.5281 2.33128 17.0415 2.63046 18.4539 3.21369C19.8663 3.79693 21.1499 4.65278 22.2314 5.73234C23.3218 6.81514 24.1868 8.10329 24.7764 9.52235C25.3661 10.9414 25.6686 12.4632 25.6667 13.9999V13.9999Z" stroke="white" stroke-width="4" stroke-linecap="round" stroke-linejoin="round"/>
<path d="M25.6667 13.9998C23.9645 13.9998 19.2687 13.3582 15.0658 15.2032C10.5 17.2082 7.19425 20.3179 5.75342 22.2522" stroke="white" stroke-width="4" stroke-linecap="round" stroke-linejoin="round"/>
<path d="M9.625 3.1814C11.4508 4.86665 15.435 9.15706 16.9167 13.4166C18.3983 17.6761 18.9467 22.9132 19.285 24.4036" stroke="white" stroke-width="4" stroke-linecap="round" stroke-linejoin="round"/>
<path d="M2.42316 12.5417C4.62699 12.6747 10.4609 12.7943 14.1942 11.2C17.9276 9.60575 21.14 6.67334 22.2419 5.74292M3.20832 18.4409C4.23634 20.9294 6.0904 22.9876 8.45832 24.269" stroke="white" stroke-width="4" stroke-linecap="round" stroke-linejoin="round"/>
<path d="M2.33332 13.9999C2.32924 11.0085 3.47833 8.13052 5.54166 5.96451M14 2.33326C12.4173 2.33132 10.8508 2.65236 9.3964 3.27673C7.94203 3.90111 6.63036 4.81569 5.54166 5.96451M18.6667 3.30393C19.9953 3.88524 21.2041 4.70873 22.2314 5.73234C23.3218 6.81514 24.1868 8.10329 24.7764 9.52235C25.3661 10.9414 25.6686 12.4632 25.6667 13.9999C25.6667 15.4361 25.4071 16.8122 24.9317 18.0833M14 25.6666C15.5281 25.6686 17.0415 25.3694 18.4539 24.7862C19.8663 24.2029 21.1499 23.3471 22.2314 22.2675" stroke="white" stroke-width="4" stroke-linecap="round" stroke-linejoin="round"/>
</svg>
