<svg width="128" height="128" viewBox="0 0 128 128" fill="none" xmlns="http://www.w3.org/2000/svg">
<path d="M112 36V112C112 116.243 110.314 120.313 107.314 123.314C104.313 126.314 100.243 128 96 128H32C27.7565 128 23.6869 126.314 20.6863 123.314C17.6857 120.313 16 116.243 16 112V16C16 11.7565 17.6857 7.68687 20.6863 4.68629C23.6869 1.68571 27.7565 0 32 0L76 0L112 36ZM88 36C84.8174 36 81.7652 34.7357 79.5147 32.4853C77.2643 30.2348 76 27.1826 76 24V8H32C29.8783 8 27.8434 8.84285 26.3431 10.3431C24.8429 11.8434 24 13.8783 24 16V112C24 114.122 24.8429 116.157 26.3431 117.657C27.8434 119.157 29.8783 120 32 120H96C98.1217 120 100.157 119.157 101.657 117.657C103.157 116.157 104 114.122 104 112V36H88Z" fill="white"/>
<path d="M69.168 53.1679C69.5396 52.7954 69.981 52.4999 70.4669 52.2982C70.9529 52.0966 71.4739 51.9928 72 51.9928C72.5261 51.9928 73.0471 52.0966 73.5331 52.2982C74.019 52.4999 74.4604 52.7954 74.832 53.1679L90.832 69.1679C91.2045 69.5395 91.5001 69.9809 91.7017 70.4669C91.9034 70.9528 92.0072 71.4738 92.0072 71.9999C92.0072 72.5261 91.9034 73.0471 91.7017 73.533C91.5001 74.019 91.2045 74.4604 90.832 74.8319L74.832 90.8319C74.0809 91.583 73.0622 92.005 72 92.005C70.9378 92.005 69.9191 91.583 69.168 90.8319C68.4169 90.0809 67.995 89.0622 67.995 87.9999C67.995 86.9377 68.4169 85.919 69.168 85.1679L82.344 71.9999L69.168 58.8319C68.7955 58.4604 68.5 58.019 68.2983 57.533C68.0967 57.0471 67.9929 56.5261 67.9929 55.9999C67.9929 55.4738 68.0967 54.9528 68.2983 54.4669C68.5 53.9809 68.7955 53.5395 69.168 53.1679ZM58.832 53.1679C58.4604 52.7954 58.019 52.4999 57.5331 52.2982C57.0471 52.0966 56.5261 51.9928 56 51.9928C55.4739 51.9928 54.9529 52.0966 54.4669 52.2982C53.981 52.4999 53.5396 52.7954 53.168 53.1679L37.168 69.1679C36.7955 69.5395 36.5 69.9809 36.2983 70.4669C36.0967 70.9528 35.9929 71.4738 35.9929 71.9999C35.9929 72.5261 36.0967 73.0471 36.2983 73.533C36.5 74.019 36.7955 74.4604 37.168 74.8319L53.168 90.8319C53.9191 91.583 54.9378 92.005 56 92.005C57.0622 92.005 58.0809 91.583 58.832 90.8319C59.5831 90.0809 60.0051 89.0622 60.0051 87.9999C60.0051 86.9377 59.5831 85.919 58.832 85.1679L45.656 71.9999L58.832 58.8319C59.2045 58.4604 59.5001 58.019 59.7017 57.533C59.9034 57.0471 60.0072 56.5261 60.0072 55.9999C60.0072 55.4738 59.9034 54.9528 59.7017 54.4669C59.5001 53.9809 59.2045 53.5395 58.832 53.1679Z" fill="white"/>
</svg>
