<svg width="33" height="32" viewBox="0 0 33 32" fill="none" xmlns="http://www.w3.org/2000/svg">
<g clip-path="url(#clip0_6_10)">
<path d="M30.7862 8.16868C29.3454 5.69021 27.2746 3.63173 24.7812 2.19958C22.2706 0.737662 19.4091 -0.0223598 16.4995 -4.10291e-05C13.5899 -0.0222683 10.7284 0.737748 8.21777 2.19958C5.72435 3.63167 3.65349 5.69016 2.2128 8.16868C0.742179 10.6643 -0.0224038 13.5087 -4.30262e-05 16.4009C-0.0337963 19.8699 1.07191 23.2552 3.14925 26.0428C5.15463 28.8296 8.00393 30.906 11.2809 31.9687C11.4259 32.0129 11.5793 32.0225 11.7287 31.9966C11.8781 31.9707 12.0192 31.91 12.1405 31.8195C12.2311 31.7385 12.3028 31.6389 12.3508 31.5276C12.3988 31.4163 12.4218 31.296 12.4184 31.175C12.4184 31.132 12.4147 30.7478 12.4073 30.0222C12.3999 29.2967 12.3961 28.6632 12.3961 28.1218L11.9015 28.2065C11.5074 28.2689 11.1083 28.2938 10.7094 28.2811C10.2084 28.2724 9.70901 28.2225 9.21628 28.132C8.6915 28.0348 8.19786 27.8137 7.77687 27.4875C7.33578 27.1572 7.00599 26.7016 6.83115 26.1809L6.61626 25.6893C6.43561 25.3006 6.20859 24.9349 5.94009 24.6C5.69835 24.2573 5.37631 23.9783 5.00178 23.787L4.85173 23.6802C4.74902 23.6061 4.65572 23.5198 4.57385 23.4233C4.49436 23.334 4.42908 23.2331 4.38026 23.1241C4.33703 23.0241 4.37285 22.9421 4.48771 22.8783C4.68566 22.8005 4.89894 22.769 5.11108 22.7862L5.54087 22.8497C5.92481 22.9522 6.28567 23.1262 6.60422 23.3626C7.03028 23.6511 7.38627 24.0305 7.64627 24.473C7.93013 25.0084 8.33969 25.468 8.84022 25.8126C9.2525 26.1022 9.74251 26.2625 10.2472 26.273C10.658 26.2784 11.0682 26.2426 11.4717 26.1662C11.8058 26.0981 12.1304 25.9906 12.4388 25.8458C12.5097 25.01 12.8836 24.2284 13.491 23.6462C12.7483 23.5736 12.0123 23.4449 11.2893 23.2613C10.5841 23.0698 9.90571 22.7915 9.27001 22.4326C8.60489 22.0728 8.01733 21.5867 7.54067 21.0018C7.02958 20.3295 6.64716 19.5696 6.41248 18.7598C6.10289 17.7205 5.95453 16.6404 5.97251 15.5566C5.93393 13.9221 6.54341 12.3381 7.66942 11.1463C7.14143 9.73118 7.19534 8.16628 7.81948 6.79035C8.4506 6.68892 9.09782 6.78986 9.66737 7.07854C10.2857 7.30668 10.8855 7.58155 11.4615 7.90075C11.8413 8.12848 12.1457 8.3206 12.3748 8.47713C15.0745 7.73703 17.9254 7.73703 20.6251 8.47713L21.4411 7.9652C22.0687 7.59194 22.7306 7.27871 23.4178 7.02974C23.9579 6.76902 24.5677 6.68676 25.1582 6.79495C25.4737 7.47412 25.6512 8.20848 25.6806 8.95597C25.71 9.70345 25.5907 10.4494 25.3296 11.1509C26.4531 12.3398 27.0627 13.9194 27.0274 15.5502C27.043 16.6362 26.8934 17.7183 26.5837 18.7598C26.3519 19.5726 25.9655 20.3337 25.4454 21.0018C24.9627 21.5795 24.3747 22.0615 23.7123 22.4225C23.0765 22.7812 22.3982 23.0595 21.6931 23.2512C20.97 23.4348 20.234 23.5635 19.4913 23.636C19.8899 24.029 20.1965 24.5044 20.3896 25.0283C20.5826 25.5523 20.6574 26.1121 20.6084 26.668V31.1741C20.6048 31.2943 20.6269 31.4139 20.6732 31.5249C20.7195 31.636 20.789 31.7361 20.877 31.8186C20.996 31.9094 21.1352 31.9704 21.2829 31.9964C21.4306 32.0223 21.5824 32.0125 21.7255 31.9677C25.0025 30.9052 27.8519 28.8288 29.8571 26.0419C31.9343 23.2541 33.04 19.869 33.0064 16.4C33.0257 13.5075 32.2586 10.6636 30.7862 8.16868Z" fill="white"/>
</g>
<defs>
<clipPath id="clip0_6_10">
<rect width="33" height="32" fill="white"/>
</clipPath>
</defs>
</svg>
