<svg width="135" height="135" viewBox="0 0 135 135" fill="none" xmlns="http://www.w3.org/2000/svg">
<path d="M33.75 65.2875V101.25H69.7125L62.2125 93.75H41.25V72.7875L33.75 65.2875Z" fill="white"/>
<path d="M130.762 121.087L120 110.175V120H15V104.437H22.5V98.4375H15V73.5H22.5V67.5H15V43.5H22.5V37.5H15V16.5375L74.775 75.975V65.4L13.9125 4.83746C13.388 4.3086 12.7179 3.94792 11.9876 3.80141C11.2573 3.6549 10.4999 3.72919 9.81195 4.01482C9.12403 4.30044 8.53676 4.78446 8.12501 5.40516C7.71325 6.02586 7.49567 6.75512 7.5 7.49996V123.75C7.5 124.745 7.89509 125.698 8.59835 126.402C9.30161 127.105 10.2554 127.5 11.25 127.5H128.1C128.845 127.504 129.574 127.287 130.195 126.875C130.815 126.463 131.3 125.876 131.585 125.188C131.871 124.5 131.945 123.743 131.799 123.012C131.652 122.282 131.291 121.612 130.762 121.087Z" fill="white"/>
<path d="M90 112.5H105C106.989 112.5 108.897 111.71 110.303 110.303C111.71 108.897 112.5 106.989 112.5 105V32.6249L103.875 16.7624C103.208 15.6068 102.245 14.65 101.084 13.9908C99.9243 13.3316 98.6092 12.9939 97.275 13.0124C95.9105 13.0233 94.5749 13.4061 93.4119 14.1198C92.2489 14.8334 91.3026 15.8509 90.675 17.0624L82.5 32.6999V105C82.5 106.989 83.2902 108.897 84.6967 110.303C86.1032 111.71 88.0109 112.5 90 112.5ZM90 34.4999L97.275 20.3624L105 34.5374V89.9999H90V34.4999ZM90 96.1124H105V105.262H90V96.1124Z" fill="white"/>
</svg>
