<svg width="29" height="29" viewBox="0 0 29 29" fill="none" xmlns="http://www.w3.org/2000/svg">
<g clip-path="url(#clip0_6_16)">
<path d="M28.9264 8.52626C28.903 7.32371 28.6751 6.13392 28.2523 5.00786C27.8789 4.04432 27.3084 3.16929 26.5775 2.43867C25.8466 1.70805 24.9713 1.13792 24.0075 0.764711C22.8799 0.342179 21.6887 0.114304 20.4848 0.0908208C18.9405 0.017256 18.4437 0 14.5049 0C10.5662 0 10.0739 0.017256 8.52689 0.0853716C7.32443 0.108858 6.13473 0.336741 5.00873 0.759262C4.03883 1.12313 3.16065 1.69546 2.4362 2.43581C1.69995 3.16041 1.12969 4.03608 0.764787 5.00241C0.342269 6.12857 0.114051 7.31827 0.0898613 8.52081C0.0162826 10.0729 -0.000976562 10.5661 -0.000976562 14.5032C-0.000976562 18.4403 0.0162826 18.9334 0.084411 20.4801C0.107729 21.6826 0.335658 22.8724 0.758428 23.9985C1.13139 24.9628 1.70159 25.8386 2.43254 26.5698C3.16348 27.3011 4.03908 27.8718 5.00328 28.2453C6.12971 28.6674 7.31963 28.8953 8.52234 28.9192C10.0666 28.9873 10.5626 29.0045 14.5004 29.0045C18.4382 29.0045 18.9315 28.9873 20.4784 28.9192C21.6812 28.8959 22.8712 28.668 23.9975 28.2453C24.9615 27.8726 25.837 27.3027 26.5678 26.572C27.2986 25.8413 27.8687 24.9659 28.2414 24.0021C28.6635 22.8759 28.8914 21.6862 28.9155 20.4837C28.9836 18.9398 29.0008 18.4439 29.0008 14.5068C29.0008 10.5697 28.9954 10.0766 28.9273 8.52989L28.9264 8.52626ZM26.3139 20.3666C26.3045 21.2857 26.1358 22.1962 25.8152 23.0576C25.5733 23.6831 25.2033 24.2511 24.729 24.7253C24.2547 25.1996 23.6866 25.5694 23.061 25.8113C22.1992 26.1313 21.2886 26.3 20.3694 26.3099C18.8397 26.378 18.381 26.3953 14.5104 26.3953C10.6398 26.3953 10.1756 26.378 8.65133 26.3099C7.73207 26.3006 6.82138 26.1319 5.95981 25.8113C5.33017 25.5802 4.76074 25.2101 4.29384 24.7287C3.81353 24.2609 3.44362 23.6918 3.21105 23.063C2.89104 22.2014 2.72232 21.291 2.71235 20.372C2.64422 18.8426 2.62696 18.383 2.62696 14.5141C2.62696 10.6451 2.64422 10.1801 2.71235 8.65613C2.72164 7.73704 2.89038 6.82652 3.21105 5.96511C3.44261 5.33405 3.81547 4.76431 4.30111 4.29946C4.76871 3.81951 5.33755 3.44997 5.96617 3.21778C6.82794 2.8979 7.7385 2.72922 8.65769 2.71918C10.1874 2.65106 10.647 2.6338 14.5167 2.6338C18.3864 2.6338 18.8515 2.65106 20.3758 2.71918C21.295 2.72854 22.2057 2.89724 23.0673 3.21778C23.6969 3.44854 24.2663 3.81827 24.7333 4.29946C25.2136 4.76726 25.5835 5.33629 25.8161 5.96511C26.136 6.82672 26.3047 7.73711 26.3148 8.65613C26.3829 10.1856 26.4002 10.6442 26.4002 14.5141C26.4002 18.384 26.3829 18.8362 26.3148 20.3666H26.3139Z" fill="white"/>
<path d="M14.5059 7.05313C13.0327 7.05313 11.5926 7.48991 10.3676 8.30823C9.14269 9.12655 8.18797 10.2897 7.62419 11.6505C7.06042 13.0113 6.91291 14.5087 7.20032 15.9533C7.48773 17.398 8.19715 18.725 9.23887 19.7665C10.2806 20.808 11.6078 21.5173 13.0527 21.8047C14.4976 22.092 15.9953 21.9445 17.3564 21.3809C18.7175 20.8172 19.8808 19.8626 20.6993 18.6379C21.5177 17.4132 21.9546 15.9734 21.9546 14.5004C21.9546 12.5253 21.1698 10.631 19.7729 9.2344C18.376 7.83776 16.4814 7.05313 14.5059 7.05313ZM14.5059 19.3357C13.5499 19.3357 12.6154 19.0523 11.8206 18.5213C11.0257 17.9903 10.4062 17.2355 10.0403 16.3525C9.67451 15.4695 9.57879 14.4978 9.76529 13.5604C9.95179 12.6229 10.4121 11.7619 11.0881 11.086C11.7641 10.4102 12.6253 9.94991 13.5629 9.76345C14.5005 9.57698 15.4724 9.67268 16.3556 10.0384C17.2388 10.4042 17.9937 11.0236 18.5248 11.8183C19.0559 12.613 19.3394 13.5474 19.3394 14.5032C19.3392 15.7848 18.8298 17.0138 17.9234 17.92C17.017 18.8263 15.7877 19.3355 14.5059 19.3357Z" fill="white"/>
<path d="M23.9912 6.75887C23.9912 7.10286 23.8892 7.43912 23.698 7.72513C23.5069 8.01115 23.2352 8.23407 22.9173 8.36571C22.5995 8.49734 22.2497 8.53178 21.9123 8.46467C21.5748 8.39757 21.2649 8.23192 21.0216 7.98869C20.7783 7.74545 20.6126 7.43555 20.5455 7.09818C20.4784 6.7608 20.5128 6.41111 20.6445 6.09331C20.7762 5.77551 20.9991 5.50388 21.2852 5.31277C21.5713 5.12166 21.9076 5.01965 22.2516 5.01965C22.713 5.01965 23.1555 5.20289 23.4817 5.52906C23.8079 5.85523 23.9912 6.2976 23.9912 6.75887Z" fill="white"/>
</g>
<defs>
<clipPath id="clip0_6_16">
<rect width="29" height="29" fill="white"/>
</clipPath>
</defs>
</svg>
