<svg width="28" height="28" viewBox="0 0 28 28" fill="none" xmlns="http://www.w3.org/2000/svg">
<g clip-path="url(#clip0_12_166)">
<path d="M25.4672 1.42222e-06H2.53277C1.86104 1.42222e-06 1.21682 0.266846 0.741832 0.741832C0.266846 1.21682 1.42222e-06 1.86104 1.42222e-06 2.53277V25.4672C-0.00035128 25.8001 0.0649004 26.1297 0.192026 26.4373C0.319151 26.7449 0.505658 27.0244 0.740882 27.2599C0.976106 27.4954 1.25544 27.6822 1.5629 27.8096C1.87036 27.9371 2.19993 28.0027 2.53277 28.0027H25.4672C25.8003 28.003 26.1302 27.9377 26.4379 27.8104C26.7457 27.6831 27.0253 27.4964 27.2609 27.2609C27.4964 27.0253 27.6831 26.7457 27.8104 26.4379C27.9377 26.1302 28.003 25.8003 28.0027 25.4672V2.53277C28.0027 2.19993 27.9371 1.87036 27.8096 1.5629C27.6822 1.25544 27.4954 0.976106 27.2599 0.740882C27.0244 0.505658 26.7449 0.319151 26.4373 0.192026C26.1297 0.0649004 25.8001 -0.00035128 25.4672 1.42222e-06ZM8.66473 24.1771C8.66473 24.3727 8.58706 24.5602 8.44881 24.6984C8.31056 24.8367 8.12305 24.9143 7.92754 24.9143H4.78998C4.59446 24.9143 4.40696 24.8367 4.26871 24.6984C4.13045 24.5602 4.05279 24.3727 4.05279 24.1771V11.0257C4.05279 10.8302 4.13045 10.6427 4.26871 10.5044C4.40696 10.3662 4.59446 10.2885 4.78998 10.2885H7.92754C8.12305 10.2885 8.31056 10.3662 8.44881 10.5044C8.58706 10.6427 8.66473 10.8302 8.66473 11.0257V24.1771ZM6.35831 9.04764C5.76873 9.04764 5.19238 8.87281 4.70216 8.54525C4.21194 8.2177 3.82986 7.75213 3.60424 7.20743C3.37861 6.66272 3.31958 6.06335 3.4346 5.48509C3.54962 4.90684 3.83353 4.37567 4.25043 3.95878C4.66733 3.54188 5.19849 3.25797 5.77675 3.14294C6.355 3.02792 6.95438 3.08696 7.49909 3.31258C8.04379 3.5382 8.50936 3.92028 8.83691 4.4105C9.16447 4.90073 9.3393 5.47707 9.3393 6.06665C9.3393 6.45812 9.26219 6.84576 9.11239 7.20743C8.96258 7.5691 8.743 7.89772 8.46619 8.17453C8.18938 8.45134 7.86076 8.67092 7.49909 8.82073C7.13742 8.97054 6.74978 9.04764 6.35831 9.04764ZM25.0611 24.2362C25.0611 24.416 24.9896 24.5885 24.8624 24.7157C24.7353 24.8429 24.5628 24.9143 24.3829 24.9143H21.0163C20.8365 24.9143 20.664 24.8429 20.5368 24.7157C20.4096 24.5885 20.3382 24.416 20.3382 24.2362V18.0631C20.3382 17.1425 20.6066 14.03 17.9333 14.03C15.8586 14.03 15.4373 16.1601 15.3532 17.1165V24.2362C15.3532 24.416 15.2817 24.5885 15.1545 24.7157C15.0274 24.8429 14.8549 24.9143 14.675 24.9143H11.4185C11.2386 24.9143 11.0661 24.8429 10.939 24.7157C10.8118 24.5885 10.7403 24.416 10.7403 24.2362V10.9649C10.7403 10.785 10.8118 10.6125 10.939 10.4854C11.0661 10.3582 11.2386 10.2867 11.4185 10.2867H14.6723C14.8522 10.2867 15.0247 10.3582 15.1519 10.4854C15.279 10.6125 15.3505 10.785 15.3505 10.9649V12.1127C16.1199 10.9577 17.2633 10.0667 19.6976 10.0667C25.0888 10.0667 25.0584 15.1036 25.0584 17.8707V24.2362H25.0611Z" fill="white"/>
</g>
<defs>
<clipPath id="clip0_12_166">
<rect width="28" height="28" fill="white"/>
</clipPath>
</defs>
</svg>
