<svg width="135" height="130" viewBox="0 0 135 130" fill="none" xmlns="http://www.w3.org/2000/svg">
<g clip-path="url(#clip0_11_106)">
<path d="M132.363 0H2.63701C1.93796 -1.84469e-07 1.26752 0.277564 0.77304 0.771685C0.278559 1.26581 0.000507844 1.93605 0 2.6351L0 29.7581C0 30.4575 0.277827 31.1282 0.772363 31.6227C1.2669 32.1173 1.93763 32.3951 2.63701 32.3951H132.363C133.062 32.3951 133.733 32.1173 134.228 31.6227C134.722 31.1282 135 30.4575 135 29.7581V2.6351C134.999 1.93605 134.721 1.26581 134.227 0.771685C133.732 0.277564 133.062 -1.84469e-07 132.363 0ZM129.726 27.1211H5.27306V5.27306H129.727L129.726 27.1211Z" fill="white"/>
<path d="M123.77 21.1324L121.617 18.9791C122.517 17.1922 122.752 15.1428 122.278 13.1986C121.804 11.2544 120.654 9.54247 119.032 8.36987C117.411 7.19727 115.424 6.64067 113.43 6.79989C111.435 6.95911 109.562 7.82373 108.147 9.2387C106.732 10.6537 105.868 12.5264 105.708 14.5212C105.549 16.5159 106.106 18.5021 107.278 20.1236C108.451 21.7451 110.163 22.8959 112.107 23.3695C114.051 23.8431 116.101 23.6087 117.888 22.7081L120.041 24.8614C120.538 25.3453 121.205 25.6141 121.898 25.6096C122.592 25.6051 123.256 25.3276 123.746 24.8373C124.236 24.347 124.514 23.6832 124.518 22.9898C124.523 22.2964 124.254 21.6291 123.77 21.1324ZM116.322 17.413C115.806 17.9283 115.128 18.2489 114.403 18.3204C113.678 18.3918 112.951 18.2096 112.345 17.8048C111.739 17.4 111.292 16.7976 111.081 16.1003C110.869 15.4031 110.906 14.654 111.185 13.9809C111.464 13.3077 111.967 12.752 112.61 12.4085C113.252 12.065 113.994 11.955 114.709 12.0971C115.424 12.2392 116.067 12.6248 116.529 13.188C116.991 13.7512 117.244 14.4573 117.244 15.186C117.245 15.5998 117.164 16.0096 117.006 16.3919C116.848 16.7742 116.615 17.1213 116.322 17.413Z" fill="white"/>
<path d="M94.485 20.4552C94.4511 20.2863 94.4007 20.1211 94.3346 19.9619C94.2686 19.8025 94.1875 19.6498 94.0923 19.506C93.9967 19.3622 93.8873 19.2281 93.7657 19.1056C93.6437 18.9833 93.5095 18.8739 93.3653 18.7789C93.2217 18.6833 93.0689 18.6021 92.9093 18.5366C92.7501 18.4706 92.5849 18.4203 92.416 18.3862C92.0759 18.3177 91.7255 18.3177 91.3854 18.3862C90.8755 18.4906 90.4067 18.7405 90.0357 19.1056C89.9146 19.2286 89.8053 19.3626 89.7091 19.506C89.614 19.6499 89.5328 19.8026 89.4667 19.9619C89.4008 20.1211 89.3504 20.2863 89.3164 20.4552C89.2495 20.7955 89.2495 21.1456 89.3164 21.4859C89.3505 21.6545 89.4008 21.8194 89.4667 21.9782C89.5989 22.2985 89.7925 22.5897 90.0367 22.8355C90.1601 22.9573 90.2952 23.0667 90.44 23.1621C90.5829 23.2572 90.7346 23.3384 90.893 23.4045C91.0525 23.4697 91.2176 23.5201 91.3863 23.5549C91.898 23.6572 92.4285 23.6049 92.9103 23.4045C93.0696 23.3385 93.2223 23.2573 93.3662 23.1621C93.5106 23.0673 93.6447 22.9579 93.7666 22.8355C94.2587 22.3396 94.536 21.6701 94.5387 20.9715C94.5379 20.7981 94.5199 20.6251 94.485 20.4552Z" fill="white"/>
<path d="M81.9035 18.3346H27.1038C26.4133 18.3478 25.7555 18.6313 25.2718 19.1243C24.7881 19.6173 24.5171 20.2804 24.5171 20.9711C24.5171 21.6618 24.7881 22.3249 25.2718 22.8179C25.7555 23.3109 26.4133 23.5945 27.1038 23.6077H81.9035C82.594 23.5945 83.2518 23.3109 83.7355 22.8179C84.2193 22.3249 84.4902 21.6618 84.4902 20.9711C84.4902 20.2804 84.2193 19.6173 83.7355 19.1243C83.2518 18.6313 82.594 18.3478 81.9035 18.3346Z" fill="white"/>
<path d="M83.0088 36.1528H2.94829C2.24891 36.1528 1.57818 36.4307 1.08364 36.9252C0.589106 37.4197 0.311279 38.0905 0.311279 38.7898V90.7858C0.311279 91.4852 0.589106 92.1559 1.08364 92.6504C1.57818 93.145 2.24891 93.4228 2.94829 93.4228H83.0088C83.7082 93.4228 84.3789 93.145 84.8735 92.6504C85.368 92.1559 85.6458 91.4852 85.6458 90.7858V38.7898C85.6458 38.0905 85.368 37.4197 84.8735 36.9252C84.3789 36.4307 83.7082 36.1528 83.0088 36.1528ZM32.1163 88.1488H9.73574L24.8088 70.6974L35.7284 83.3412L32.1163 88.1488ZM38.7084 88.1488L43.6251 81.5903H56.4098C57.1003 81.5771 57.7581 81.2935 58.2419 80.8005C58.7256 80.3075 58.9965 79.6444 58.9965 78.9537C58.9965 78.2631 58.7256 77.5999 58.2419 77.1069C57.7581 76.6139 57.1003 76.3304 56.4098 76.3172H47.5801L49.4298 73.8507H65.9856L76.708 88.1459L38.7084 88.1488ZM53.3848 68.5805L57.7058 62.816L62.0286 68.5795L53.3848 68.5805ZM80.3728 84.2464L59.8131 56.8399C59.5674 56.5133 59.2491 56.2482 58.8834 56.0657C58.5176 55.8832 58.1145 55.7882 57.7058 55.7882C57.297 55.7882 56.8939 55.8832 56.5282 56.0657C56.1625 56.2482 55.8442 56.5133 55.5985 56.8399L38.9632 79.0193L26.804 64.9387C26.5565 64.6521 26.2502 64.4221 25.9059 64.2645C25.5616 64.1069 25.1874 64.0254 24.8088 64.0254C24.4301 64.0254 24.0559 64.1069 23.7116 64.2645C23.3673 64.4221 23.061 64.6521 22.8135 64.9387L5.58434 84.8863V41.4268H80.3728V84.2464Z" fill="white"/>
<path d="M36.2946 44.4537C34.4509 44.4535 32.6485 45.0001 31.1153 46.0243C29.5822 47.0485 28.3873 48.5043 27.6816 50.2077C26.9759 51.911 26.7911 53.7854 27.1507 55.5938C27.5103 57.4021 28.398 59.0632 29.7017 60.367C31.0053 61.6708 32.6664 62.5587 34.4747 62.9185C36.283 63.2783 38.1574 63.0937 39.8608 62.3882C41.5642 61.6827 43.0202 60.4878 44.0445 58.9548C45.0689 57.4218 45.6156 55.6195 45.6156 53.7757C45.6131 51.3043 44.6303 48.9348 42.8828 47.1872C41.1354 45.4396 38.766 44.4565 36.2946 44.4537ZM36.2946 57.8237C35.494 57.8237 34.7114 57.5863 34.0457 57.1415C33.38 56.6967 32.8612 56.0645 32.5548 55.3248C32.2484 54.5851 32.1683 53.7712 32.3244 52.986C32.4806 52.2008 32.8662 51.4795 33.4323 50.9134C33.9984 50.3473 34.7197 49.9617 35.5049 49.8055C36.2901 49.6493 37.104 49.7295 37.8437 50.0359C38.5834 50.3423 39.2156 50.8611 39.6604 51.5268C40.1052 52.1925 40.3426 52.9751 40.3426 53.7757C40.3403 54.8482 39.9129 55.8761 39.1542 56.6342C38.3954 57.3922 37.3671 57.8186 36.2946 57.8198V57.8237Z" fill="white"/>
<path d="M132.364 36.1528H91.8404C91.141 36.1528 90.4703 36.4307 89.9757 36.9252C89.4812 37.4197 89.2034 38.0905 89.2034 38.7898V90.7858C89.2034 91.4852 89.4812 92.1559 89.9757 92.6504C90.4703 93.145 91.141 93.4228 91.8404 93.4228H132.364C133.063 93.4228 133.734 93.145 134.229 92.6504C134.723 92.1559 135.001 91.4852 135.001 90.7858V38.7898C135.001 38.0905 134.723 37.4197 134.229 36.9252C133.734 36.4307 133.063 36.1528 132.364 36.1528ZM129.727 88.1488H94.4774V41.4268H129.727V88.1488Z" fill="white"/>
<path d="M123.587 45.7698H100.615C100.265 45.7631 99.9166 45.8263 99.5909 45.9558C99.2652 46.0853 98.9685 46.2785 98.7183 46.524C98.4681 46.7694 98.2693 47.0624 98.1337 47.3856C97.998 47.7088 97.9281 48.0558 97.9281 48.4063C97.9281 48.7568 97.998 49.1038 98.1337 49.427C98.2693 49.7502 98.4681 50.0431 98.7183 50.2886C98.9685 50.5341 99.2652 50.7272 99.5909 50.8567C99.9166 50.9862 100.265 51.0495 100.615 51.0428H123.587C124.277 51.0297 124.935 50.7461 125.419 50.2531C125.903 49.7601 126.174 49.097 126.174 48.4063C126.174 47.7156 125.903 47.0525 125.419 46.5595C124.935 46.0665 124.277 45.7829 123.587 45.7698Z" fill="white"/>
<path d="M123.587 56.3513H100.615C100.265 56.3446 99.9166 56.4079 99.5909 56.5374C99.2652 56.6669 98.9685 56.86 98.7183 57.1055C98.4681 57.351 98.2693 57.6439 98.1337 57.9671C97.998 58.2903 97.9281 58.6373 97.9281 58.9878C97.9281 59.3384 97.998 59.6854 98.1337 60.0086C98.2693 60.3318 98.4681 60.6247 98.7183 60.8702C98.9685 61.1157 99.2652 61.3088 99.5909 61.4383C99.9166 61.5678 100.265 61.6311 100.615 61.6244H123.587C124.277 61.6112 124.935 61.3276 125.419 60.8346C125.903 60.3416 126.174 59.6785 126.174 58.9878C126.174 58.2972 125.903 57.6341 125.419 57.1411C124.935 56.648 124.277 56.3645 123.587 56.3513Z" fill="white"/>
<path d="M123.587 66.931H100.615C100.265 66.9243 99.9166 66.9876 99.5909 67.1171C99.2652 67.2466 98.9685 67.4397 98.7183 67.6852C98.4681 67.9307 98.2693 68.2236 98.1337 68.5468C97.998 68.87 97.9281 69.217 97.9281 69.5676C97.9281 69.9181 97.998 70.2651 98.1337 70.5883C98.2693 70.9115 98.4681 71.2044 98.7183 71.4499C98.9685 71.6954 99.2652 71.8885 99.5909 72.018C99.9166 72.1475 100.265 72.2108 100.615 72.2041H123.587C124.277 72.1909 124.935 71.9073 125.419 71.4143C125.903 70.9213 126.174 70.2582 126.174 69.5676C126.174 68.8769 125.903 68.2138 125.419 67.7207C124.935 67.2277 124.277 66.9442 123.587 66.931Z" fill="white"/>
<path d="M103.201 79.6371C103.167 79.4681 103.116 79.3029 103.05 79.1438C102.984 78.9846 102.903 78.832 102.808 78.6878C102.47 78.1801 101.965 77.8058 101.381 77.6288C100.797 77.4518 100.17 77.4832 99.6068 77.7175C99.4476 77.784 99.295 77.8651 99.1509 77.9599C98.8615 78.1508 98.6138 78.3984 98.4229 78.6878C98.3282 78.832 98.2471 78.9847 98.1805 79.1438C98.0473 79.4634 97.9788 79.8062 97.9788 80.1524C97.9788 80.4987 98.0473 80.8415 98.1805 81.1611C98.2469 81.3203 98.328 81.473 98.4229 81.617C98.6138 81.9064 98.8615 82.1541 99.1509 82.345C99.2952 82.4395 99.4478 82.5206 99.6068 82.5873C99.766 82.6532 99.9312 82.7036 100.1 82.7377C100.525 82.8245 100.965 82.8041 101.38 82.6784C101.796 82.5526 102.173 82.3255 102.478 82.0174C102.726 81.773 102.921 81.4814 103.053 81.1601C103.187 80.8403 103.255 80.497 103.253 80.1505C103.253 79.9781 103.235 79.8061 103.201 79.6371Z" fill="white"/>
<path d="M123.583 77.5155H110.612C109.921 77.5287 109.263 77.8122 108.78 78.3053C108.296 78.7983 108.025 79.4614 108.025 80.152C108.025 80.8427 108.296 81.5058 108.78 81.9988C109.263 82.4919 109.921 82.7754 110.612 82.7886H123.583C124.274 82.7754 124.931 82.4919 125.415 81.9988C125.899 81.5058 126.17 80.8427 126.17 80.152C126.17 79.4614 125.899 78.7983 125.415 78.3053C124.931 77.8122 124.274 77.5287 123.583 77.5155Z" fill="white"/>
<path d="M43.4719 97.1632H2.94829C2.24957 97.1632 1.57942 97.4405 1.085 97.9342C0.59057 98.4279 0.312295 99.0977 0.311279 99.7964V126.955C0.311279 127.654 0.589106 128.325 1.08364 128.819C1.57818 129.314 2.24891 129.592 2.94829 129.592H43.4719C44.1712 129.592 44.842 129.314 45.3365 128.819C45.831 128.325 46.1089 127.654 46.1089 126.955V99.7964C46.1078 99.0977 45.8296 98.4279 45.3351 97.9342C44.8407 97.4405 44.1706 97.1632 43.4719 97.1632ZM40.8348 124.318H5.58434V102.436H40.8339L40.8348 124.318Z" fill="white"/>
<path d="M132.363 97.1632H52.6627C51.9633 97.1632 51.2925 97.441 50.798 97.9356C50.3035 98.4301 50.0256 99.1008 50.0256 99.8002V126.959C50.0256 127.658 50.3035 128.329 50.798 128.823C51.2925 129.318 51.9633 129.596 52.6627 129.596H132.364C133.063 129.596 133.734 129.318 134.229 128.823C134.723 128.329 135.001 127.658 135.001 126.959V99.7964C135 99.0975 134.722 98.4276 134.227 97.9339C133.732 97.4401 133.062 97.163 132.363 97.1632ZM129.727 124.318H55.3006V102.436H129.727V124.318Z" fill="white"/>
<path d="M67.3094 112.866C67.2752 112.697 67.2248 112.531 67.159 112.372C67.0935 112.213 67.0123 112.06 66.9167 111.916C66.7257 111.627 66.4781 111.379 66.1887 111.188C65.9 110.998 65.578 110.864 65.2395 110.793C64.8991 110.727 64.5492 110.727 64.2088 110.793C64.0399 110.828 63.8748 110.88 63.7155 110.946C63.5568 111.012 63.4048 111.093 63.2615 111.188C63.1172 111.283 62.9831 111.393 62.8611 111.515C62.7386 111.638 62.6283 111.772 62.5315 111.915C62.4359 112.059 62.3548 112.212 62.2892 112.371C62.2234 112.531 62.173 112.696 62.1388 112.865C62.0722 113.204 62.0722 113.553 62.1388 113.892C62.1734 114.062 62.2237 114.228 62.2892 114.388C62.3552 114.546 62.4363 114.698 62.5315 114.841C62.6283 114.985 62.7386 115.119 62.8611 115.242C63.3568 115.734 64.0264 116.012 64.7251 116.014C64.8978 116.014 65.0701 115.998 65.2395 115.964C65.4085 115.929 65.5737 115.878 65.7328 115.811C65.893 115.747 66.0459 115.666 66.1887 115.569C66.4782 115.378 66.7258 115.13 66.9167 114.841C67.0118 114.697 67.093 114.545 67.159 114.387C67.2245 114.227 67.2749 114.061 67.3094 113.891C67.3796 113.552 67.3796 113.203 67.3094 112.864V112.866Z" fill="white"/>
<path d="M119 110.743H74.7214C74.022 110.743 73.3512 111.021 72.8567 111.515C72.3622 112.01 72.0844 112.681 72.0844 113.38C72.0844 114.079 72.3622 114.75 72.8567 115.245C73.3512 115.739 74.022 116.017 74.7214 116.017H119C119.699 116.017 120.37 115.739 120.864 115.245C121.359 114.75 121.637 114.079 121.637 113.38C121.637 112.681 121.359 112.01 120.864 111.515C120.37 111.021 119.699 110.743 119 110.743Z" fill="white"/>
</g>
<defs>
<clipPath id="clip0_11_106">
<rect width="135" height="129.595" fill="white"/>
</clipPath>
</defs>
</svg>
