<svg width="36" height="26" viewBox="0 0 36 26" fill="none" xmlns="http://www.w3.org/2000/svg">
<path d="M28.5232 0H7.47676C6.4949 0 5.52265 0.197383 4.61553 0.580869C3.7084 0.964355 2.88417 1.52644 2.18989 2.23503C1.49561 2.94362 0.944877 3.78484 0.569134 4.71065C0.193392 5.63647 0 6.62875 0 7.63085L0 18.3692C0 20.393 0.787728 22.3339 2.18989 23.765C3.59206 25.196 5.4938 26 7.47676 26H28.5232C30.5059 25.9995 32.4072 25.1953 33.809 23.7643C35.2107 22.3333 35.9982 20.3927 35.9982 18.3692V7.63085C35.9982 5.60734 35.2107 3.66668 33.809 2.23567C32.4072 0.804658 30.5059 0.000482305 28.5232 0ZM23.4666 13.522L13.6232 18.3146C13.563 18.3437 13.4965 18.3568 13.43 18.3527C13.3635 18.3486 13.2991 18.3274 13.2428 18.2911C13.1864 18.2549 13.14 18.2046 13.1077 18.1452C13.0755 18.0857 13.0585 18.0188 13.0583 17.9508V8.06646C13.0575 7.99714 13.0742 7.92878 13.1069 7.86799C13.1395 7.8072 13.187 7.75604 13.2447 7.71946C13.3024 7.68289 13.3684 7.66212 13.4362 7.65918C13.5041 7.65625 13.5716 7.67123 13.6321 7.70269L23.4764 12.7954C23.5428 12.8294 23.5984 12.8818 23.637 12.9466C23.6756 13.0114 23.6955 13.086 23.6945 13.1618C23.6935 13.2376 23.6716 13.3116 23.6312 13.3753C23.5909 13.439 23.5339 13.4899 23.4666 13.522Z" fill="white"/>
</svg>
